# xmcd
#
# Track frame offsets:
# 150
# 18728
# 37374
# 53072
# 72700
# 88845
# 110612
# 129445
# 145029
# 163364
#
# Disc length: 3522 seconds
#
#
# Revision: 0
# Processed by: cddbd v1.5PL3 Copyright (c) Steve Scherf et al.
# Submitted via: FreeRIP 2.60 
#
DISCID=9b0dc00a
DTITLE=Sylver - Chances
DYEAR=1900
DGENRE=Dance
TTITLE0=Turn the Tide
TTITLE1=Skin
TTITLE2=Forgiven
TTITLE3=Forever in Love
TTITLE4=In your Eyes
TTITLE5=Mystery of tomorrow
TTITLE6=The smile has left ur Eyes
TTITLE7=The edge of time
TTITLE8=Angel on my shoulder
TTITLE9=Secrets
EXTD=
EXTT0=
EXTT1=
EXTT2=
EXTT3=
EXTT4=
EXTT5=
EXTT6=
EXTT7=
EXTT8=
EXTT9=
PLAYORDER=
